<svg xmlns="http://www.w3.org/2000/svg" xmlns:xlink="http://www.w3.org/1999/xlink" width="424pt" height="1253pt" viewBox="0 0 424 1253"><g id="graph1" class="graph" transform="scale(1 1) rotate(0) translate(4 1249)"><title>G</title><polygon fill="#fff" stroke="#fff" points="-4 5 -4 -1249 421 -1249 421 5 -4 5"/><g id="node1" class="node"><title>edit_t</title><a xlink:href="../manual/edit_t.md" xlink:title="\N"><polygon fill="none" stroke="#000" points="146.396 -27 146.396 -63 205.604 -63 205.604 -27 146.396 -27"/><text x="176" y="-41.5" font-family="Courier New" font-size="12" text-anchor="middle">edit_t</text></a></g><g id="node31" class="node"><title>widget_t</title><polygon fill="none" stroke="#000" points=".195 -522 .195 -558 73.805 -558 73.805 -522 .195 -522"/><text x="37" y="-536.5" font-family="Courier New" font-size="12" text-anchor="middle">widget_t</text></g><g id="edge2" class="edge"><title>edit_t-&gt;widget_t</title><path fill="none" stroke="#000" d="M146.102,-50.744C133.13,-54.8042 118.797,-61.6299 110,-73 56.334,-142.361 42.0876,-421.615 38.8494,-511.779"/><polygon fill="none" stroke="#000" points="35.35 -511.697 38.507 -521.81 42.346 -511.935 35.35 -511.697"/></g><g id="node2" class="node"><title>image_base_t</title><a xlink:href="../manual/image_base_t.md" xlink:title="\N"><polygon fill="none" stroke="#000" points="124.793 -1126 124.793 -1162 227.207 -1162 227.207 -1126 124.793 -1126"/><text x="176" y="-1140.5" font-family="Courier New" font-size="12" text-anchor="middle">image_base_t</text></a></g><g id="edge4" class="edge"><title>image_base_t-&gt;widget_t</title><path fill="none" stroke="#000" d="M164.159,-1125.64C149.516,-1099.98 123.681,-1051.54 110,-1007 60.5167,-845.886 44.0848,-642.587 39.525,-568.586"/><polygon fill="none" stroke="#000" points="42.997 -568.011 38.914 -558.235 36.01 -568.424 42.997 -568.011"/></g><g id="node3" class="node"><title>window_base_t</title><a xlink:href="../manual/window_base_t.md" xlink:title="\N"><polygon fill="none" stroke="#000" points="121.192 -962 121.192 -998 230.808 -998 230.808 -962 121.192 -962"/><text x="176" y="-976.5" font-family="Courier New" font-size="12" text-anchor="middle">window_base_t</text></a></g><g id="edge6" class="edge"><title>window_base_t-&gt;widget_t</title><path fill="none" stroke="#000" d="M121.075,-962.29C116.912,-959.359 113.123,-955.953 110,-952 62.571,-891.953 44.4356,-651.523 39.5072,-568.424"/><polygon fill="none" stroke="#000" points="43.001 -568.215 38.934 -558.432 36.013 -568.617 43.001 -568.215"/></g><g id="node4" class="node"><title>label_t</title><a xlink:href="../manual/label_t.md" xlink:title="\N"><polygon fill="none" stroke="#000" points="142.796 -907 142.796 -943 209.204 -943 209.204 -907 142.796 -907"/><text x="176" y="-921.5" font-family="Courier New" font-size="12" text-anchor="middle">label_t</text></a></g><g id="edge8" class="edge"><title>label_t-&gt;widget_t</title><path fill="none" stroke="#000" d="M142.655,-917.844C130.76,-913.654 118.205,-907.115 110,-897 68.7133,-846.104 47.0792,-643.535 40.3427,-568.312"/><polygon fill="none" stroke="#000" points="43.814 -567.829 39.456 -558.171 36.84 -568.438 43.814 -567.829"/></g><g id="node5" class="node"><title>button_t</title><a xlink:href="../manual/button_t.md" xlink:title="\N"><polygon fill="none" stroke="#000" points="139.195 -852 139.195 -888 212.805 -888 212.805 -852 139.195 -852"/><text x="176" y="-866.5" font-family="Courier New" font-size="12" text-anchor="middle">button_t</text></a></g><g id="edge10" class="edge"><title>button_t-&gt;widget_t</title><path fill="none" stroke="#000" d="M139.123,-861.308C128.399,-857.095 117.511,-850.935 110,-842 74.8452,-800.182 50.2189,-635.227 41.4903,-568.37"/><polygon fill="none" stroke="#000" points="44.924 -567.628 40.181 -558.154 37.981 -568.518 44.924 -567.628"/></g><g id="node6" class="node"><title>color_tile_t</title><a xlink:href="../manual/color_tile_t.md" xlink:title="\N"><polygon fill="none" stroke="#000" points="124.793 -797 124.793 -833 227.207 -833 227.207 -797 124.793 -797"/><text x="176" y="-811.5" font-family="Courier New" font-size="12" text-anchor="middle">color_tile_t</text></a></g><g id="edge12" class="edge"><title>color_tile_t-&gt;widget_t</title><path fill="none" stroke="#000" d="M124.695,-798.924C119.226,-795.631 114.15,-791.695 110,-787 53.917,-723.55 41.4129,-618.61 38.6995,-568.433"/><polygon fill="none" stroke="#000" points="42.19 -568.144 38.247 -558.311 35.197 -568.457 42.19 -568.144"/></g><g id="node7" class="node"><title>combo_box_item_t</title><a xlink:href="../manual/combo_box_item_t.md" xlink:title="\N"><polygon fill="none" stroke="#000" points="110.391 -742 110.391 -778 241.609 -778 241.609 -742 110.391 -742"/><text x="176" y="-756.5" font-family="Courier New" font-size="12" text-anchor="middle">combo_box_item_t</text></a></g><g id="edge14" class="edge"><title>combo_box_item_t-&gt;widget_t</title><path fill="none" stroke="#000" d="M122.139,-741.845C117.702,-738.999 113.561,-735.736 110,-732 65.6949,-685.517 48.0792,-609.215 41.538,-568.193"/><polygon fill="none" stroke="#000" points="44.968 -567.466 40.039 -558.088 38.044 -568.493 44.968 -567.466"/></g><g id="node8" class="node"><title>slider_t</title><a xlink:href="../manual/slider_t.md" xlink:title="\N"><polygon fill="none" stroke="#000" points="139.195 -687 139.195 -723 212.805 -723 212.805 -687 139.195 -687"/><text x="176" y="-701.5" font-family="Courier New" font-size="12" text-anchor="middle">slider_t</text></a></g><g id="edge16" class="edge"><title>slider_t-&gt;widget_t</title><path fill="none" stroke="#000" d="M139.027,-694.565C128.79,-690.329 118.205,-684.596 110,-677 77.4038,-646.826 56.8821,-598.493 46.433,-568.037"/><polygon fill="none" stroke="#000" points="49.726 -566.847 43.273 -558.445 43.078 -569.038 49.726 -566.847"/></g><g id="node9" class="node"><title>progress_bar_t</title><a xlink:href="../manual/progress_bar_t.md" xlink:title="\N"><polygon fill="none" stroke="#000" points="117.592 -632 117.592 -668 234.408 -668 234.408 -632 117.592 -632"/><text x="176" y="-646.5" font-family="Courier New" font-size="12" text-anchor="middle">progress_bar_t</text></a></g><g id="edge18" class="edge"><title>progress_bar_t-&gt;widget_t</title><path fill="none" stroke="#000" d="M126.463,-631.979C120.698,-629.012 115.069,-625.684 110,-622 88.7965,-606.589 69.4811,-583.884 56.2065,-566.27"/><polygon fill="none" stroke="#000" points="58.935 -564.073 50.193 -558.087 53.294 -568.218 58.935 -564.073"/></g><g id="node10" class="node"><title>app_bar_t</title><a xlink:href="../manual/app_bar_t.md" xlink:title="\N"><polygon fill="none" stroke="#000" points="135.595 -577 135.595 -613 216.405 -613 216.405 -577 135.595 -577"/><text x="176" y="-591.5" font-family="Courier New" font-size="12" text-anchor="middle">app_bar_t</text></a></g><g id="edge20" class="edge"><title>app_bar_t-&gt;widget_t</title><path fill="none" stroke="#000" d="M135.374,-579.092C119.255,-572.621 100.525,-565.101 83.8231,-558.396"/><polygon fill="none" stroke="#000" points="84.843 -555.034 74.258 -554.556 82.235 -561.53 84.843 -555.034"/></g><g id="node11" class="node"><title>row_t</title><a xlink:href="../manual/row_t.md" xlink:title="\N"><polygon fill="none" stroke="#000" points="149.997 -522 149.997 -558 202.003 -558 202.003 -522 149.997 -522"/><text x="176" y="-536.5" font-family="Courier New" font-size="12" text-anchor="middle">row_t</text></a></g><g id="edge22" class="edge"><title>row_t-&gt;widget_t</title><path fill="none" stroke="#000" d="M149.872,-540C131.467,-540 105.964,-540 83.9563,-540"/><polygon fill="none" stroke="#000" points="83.805 -536.5 73.805 -540 83.805 -543.5 83.805 -536.5"/></g><g id="node12" class="node"><title>column_t</title><a xlink:href="../manual/column_t.md" xlink:title="\N"><polygon fill="none" stroke="#000" points="139.195 -467 139.195 -503 212.805 -503 212.805 -467 139.195 -467"/><text x="176" y="-481.5" font-family="Courier New" font-size="12" text-anchor="middle">column_t</text></a></g><g id="edge24" class="edge"><title>column_t-&gt;widget_t</title><path fill="none" stroke="#000" d="M139.005,-499.451C122.148,-506.218 101.873,-514.358 83.9253,-521.563"/><polygon fill="none" stroke="#000" points="82.207 -518.481 74.23 -525.455 84.814 -524.977 82.207 -518.481"/></g><g id="node13" class="node"><title>grid_t</title><a xlink:href="../manual/grid_t.md" xlink:title="\N"><polygon fill="none" stroke="#000" points="146.396 -412 146.396 -448 205.604 -448 205.604 -412 146.396 -412"/><text x="176" y="-426.5" font-family="Courier New" font-size="12" text-anchor="middle">grid_t</text></a></g><g id="edge26" class="edge"><title>grid_t-&gt;widget_t</title><path fill="none" stroke="#000" d="M146.358,-439.18C134.472,-443.766 120.933,-450.054 110,-458 88.7965,-473.411 69.4811,-496.116 56.2065,-513.73"/><polygon fill="none" stroke="#000" points="53.294 -511.782 50.193 -521.913 58.935 -515.927 53.294 -511.782"/></g><g id="node14" class="node"><title>grid_item_t</title><a xlink:href="../manual/grid_item_t.md" xlink:title="\N"><polygon fill="none" stroke="#000" points="128.394 -357 128.394 -393 223.606 -393 223.606 -357 128.394 -357"/><text x="176" y="-371.5" font-family="Courier New" font-size="12" text-anchor="middle">grid_item_t</text></a></g><g id="edge28" class="edge"><title>grid_item_t-&gt;widget_t</title><path fill="none" stroke="#000" d="M128.217,-390.475C121.64,-393.933 115.32,-398.075 110,-403 77.4038,-433.174 56.8821,-481.507 46.433,-511.963"/><polygon fill="none" stroke="#000" points="43.078 -510.962 43.273 -521.555 49.726 -513.153 43.078 -510.962"/></g><g id="node15" class="node"><title>group_box_t</title><a xlink:href="../manual/group_box_t.md" xlink:title="\N"><polygon fill="none" stroke="#000" points="128.394 -302 128.394 -338 223.606 -338 223.606 -302 128.394 -302"/><text x="176" y="-316.5" font-family="Courier New" font-size="12" text-anchor="middle">group_box_t</text></a></g><g id="edge30" class="edge"><title>group_box_t-&gt;widget_t</title><path fill="none" stroke="#000" d="M128.314,-334.544C121.569,-338.145 115.171,-342.574 110,-348 65.6949,-394.483 48.0792,-470.785 41.538,-511.807"/><polygon fill="none" stroke="#000" points="38.044 -511.507 40.039 -521.912 44.968 -512.534 38.044 -511.507"/></g><g id="node16" class="node"><title>view_t</title><a xlink:href="../manual/view_t.md" xlink:title="\N"><polygon fill="none" stroke="#000" points="146.396 -247 146.396 -283 205.604 -283 205.604 -247 146.396 -247"/><text x="176" y="-261.5" font-family="Courier New" font-size="12" text-anchor="middle">view_t</text></a></g><g id="edge32" class="edge"><title>view_t-&gt;widget_t</title><path fill="none" stroke="#000" d="M146.082,-271.49C133.425,-275.687 119.358,-282.413 110,-293 53.917,-356.45 41.4129,-461.39 38.6995,-511.567"/><polygon fill="none" stroke="#000" points="35.197 -511.543 38.247 -521.689 42.19 -511.856 35.197 -511.543"/></g><g id="node17" class="node"><title>button_group_t</title><a xlink:href="../manual/button_group_t.md" xlink:title="\N"><polygon fill="none" stroke="#000" points="117.592 -192 117.592 -228 234.408 -228 234.408 -192 117.592 -192"/><text x="176" y="-206.5" font-family="Courier New" font-size="12" text-anchor="middle">button_group_t</text></a></g><g id="edge34" class="edge"><title>button_group_t-&gt;widget_t</title><path fill="none" stroke="#000" d="M121.019,-228.128C116.924,-230.968 113.163,-234.238 110,-238 74.8452,-279.818 50.2189,-444.773 41.4903,-511.63"/><polygon fill="none" stroke="#000" points="37.981 -511.482 40.181 -521.846 44.924 -512.372 37.981 -511.482"/></g><g id="node18" class="node"><title>dialog_title_t</title><a xlink:href="../manual/dialog_title_t.md" xlink:title="\N"><polygon fill="none" stroke="#000" points="117.592 -137 117.592 -173 234.408 -173 234.408 -137 117.592 -137"/><text x="176" y="-151.5" font-family="Courier New" font-size="12" text-anchor="middle">dialog_title_t</text></a></g><g id="edge36" class="edge"><title>dialog_title_t-&gt;widget_t</title><path fill="none" stroke="#000" d="M120.878,-173.011C116.812,-175.875 113.096,-179.183 110,-183 68.7133,-233.896 47.0792,-436.465 40.3427,-511.688"/><polygon fill="none" stroke="#000" points="36.84 -511.562 39.456 -521.829 43.814 -512.171 36.84 -511.562"/></g><g id="node19" class="node"><title>dialog_client_t</title><a xlink:href="../manual/dialog_client_t.md" xlink:title="\N"><polygon fill="none" stroke="#000" points="113.991 -82 113.991 -118 238.009 -118 238.009 -82 113.991 -82"/><text x="176" y="-96.5" font-family="Courier New" font-size="12" text-anchor="middle">dialog_client_t</text></a></g><g id="edge38" class="edge"><title>dialog_client_t-&gt;widget_t</title><path fill="none" stroke="#000" d="M120.469,-118.143C116.544,-120.975 112.97,-124.24 110,-128 62.571,-188.047 44.4356,-428.477 39.5072,-511.576"/><polygon fill="none" stroke="#000" points="36.013 -511.383 38.934 -521.568 43.001 -511.785 36.013 -511.383"/></g><g id="node20" class="node"><title>window_t</title><a xlink:href="../manual/window_t.md" xlink:title="\N"><polygon fill="none" stroke="#000" points="310.195 -1044 310.195 -1080 383.805 -1080 383.805 -1044 310.195 -1044"/><text x="347" y="-1058.5" font-family="Courier New" font-size="12" text-anchor="middle">window_t</text></a></g><g id="edge40" class="edge"><title>window_t-&gt;window_base_t</title><path fill="none" stroke="#000" d="M310.062,-1047.99C299.627,-1043.71 288.277,-1038.85 278,-1034 257.939,-1024.54 236.183,-1013.07 218.019,-1003.14"/><polygon fill="none" stroke="#000" points="219.323 -999.859 208.875 -998.102 215.947 -1005.99 219.323 -999.859"/></g><g id="node21" class="node"><title>popup_t</title><a xlink:href="../manual/popup_t.md" xlink:title="\N"><polygon fill="none" stroke="#000" points="313.796 -989 313.796 -1025 380.204 -1025 380.204 -989 313.796 -989"/><text x="347" y="-1003.5" font-family="Courier New" font-size="12" text-anchor="middle">popup_t</text></a></g><g id="edge42" class="edge"><title>popup_t-&gt;window_base_t</title><path fill="none" stroke="#000" d="M313.415,-1001.79C292.93,-998.521 265.798,-994.187 241.13,-990.246"/><polygon fill="none" stroke="#000" points="241.524 -986.764 231.097 -988.643 240.42 -993.677 241.524 -986.764"/></g><g id="node22" class="node"><title>dialog_t</title><a xlink:href="../manual/dialog_t.md" xlink:title="\N"><polygon fill="none" stroke="#000" points="310.195 -934 310.195 -970 383.805 -970 383.805 -934 310.195 -934"/><text x="347" y="-948.5" font-family="Courier New" font-size="12" text-anchor="middle">dialog_t</text></a></g><g id="edge44" class="edge"><title>dialog_t-&gt;window_base_t</title><path fill="none" stroke="#000" d="M310.159,-957.938C290.067,-961.267 264.405,-965.519 240.983,-969.399"/><polygon fill="none" stroke="#000" points="240.398 -965.948 231.105 -971.036 241.542 -972.854 240.398 -965.948"/></g><g id="node23" class="node"><title>calibration_win_t</title><a xlink:href="../manual/calibration_win_t.md" xlink:title="\N"><polygon fill="none" stroke="#000" points="277.79 -879 277.79 -915 416.21 -915 416.21 -879 277.79 -879"/><text x="347" y="-893.5" font-family="Courier New" font-size="12" text-anchor="middle">calibration_win_t</text></a></g><g id="edge46" class="edge"><title>calibration_win_t-&gt;window_base_t</title><path fill="none" stroke="#000" d="M297.718,-915.095C290.965,-918.138 284.215,-921.466 278,-925 260.614,-934.886 259.305,-941.974 242,-952 238.781,-953.865 235.413,-955.681 231.978,-957.433"/><polygon fill="none" stroke="#000" points="230.24 -954.386 222.782 -961.911 233.305 -960.68 230.24 -954.386"/></g><g id="node24" class="node"><title>system_bar_t</title><a xlink:href="../manual/system_bar_t.md" xlink:title="\N"><polygon fill="none" stroke="#000" points="295.793 -824 295.793 -860 398.207 -860 398.207 -824 295.793 -824"/><text x="347" y="-838.5" font-family="Courier New" font-size="12" text-anchor="middle">system_bar_t</text></a></g><g id="edge48" class="edge"><title>system_bar_t-&gt;window_base_t</title><path fill="none" stroke="#000" d="M295.701,-857.417C289.244,-860.853 283.114,-865.003 278,-870 249.533,-897.818 270.242,-923.954 242,-952 240.594,-953.396 239.108,-954.727 237.556,-955.997"/><polygon fill="none" stroke="#000" points="235.457 -953.194 229.329 -961.837 239.509 -958.902 235.457 -953.194"/></g><g id="node25" class="node"><title>image_t</title><a xlink:href="../manual/image_t.md" xlink:title="\N"><polygon fill="none" stroke="#000" points="313.796 -1209 313.796 -1245 380.204 -1245 380.204 -1209 313.796 -1209"/><text x="347" y="-1223.5" font-family="Courier New" font-size="12" text-anchor="middle">image_t</text></a></g><g id="edge50" class="edge"><title>image_t-&gt;image_base_t</title><path fill="none" stroke="#000" d="M313.518,-1214.46C302.165,-1209.86 289.411,-1204.44 278,-1199 257.646,-1189.3 235.597,-1177.46 217.308,-1167.25"/><polygon fill="none" stroke="#000" points="218.819 -1164.08 208.387 -1162.23 215.388 -1170.18 218.819 -1164.08"/></g><g id="node26" class="node"><title>gif_image_t</title><a xlink:href="../manual/gif_image_t.md" xlink:title="\N"><polygon fill="none" stroke="#000" points="299.394 -1154 299.394 -1190 394.606 -1190 394.606 -1154 299.394 -1154"/><text x="347" y="-1168.5" font-family="Courier New" font-size="12" text-anchor="middle">gif_image_t</text></a></g><g id="edge52" class="edge"><title>gif_image_t-&gt;image_base_t</title><path fill="none" stroke="#000" d="M299.373,-1164.27C280.233,-1161.1 257.824,-1157.39 237.451,-1154.02"/><polygon fill="none" stroke="#000" points="237.762 -1150.52 227.324 -1152.34 236.617 -1157.43 237.762 -1150.52"/></g><g id="node27" class="node"><title>svg_image_t</title><a xlink:href="../manual/svg_image_t.md" xlink:title="\N"><polygon fill="none" stroke="#000" points="299.394 -1099 299.394 -1135 394.606 -1135 394.606 -1099 299.394 -1099"/><text x="347" y="-1113.5" font-family="Courier New" font-size="12" text-anchor="middle">svg_image_t</text></a></g><g id="edge54" class="edge"><title>svg_image_t-&gt;image_base_t</title><path fill="none" stroke="#000" d="M299.373,-1124.45C280.233,-1127.51 257.824,-1131.09 237.451,-1134.34"/><polygon fill="none" stroke="#000" points="236.646 -1130.93 227.324 -1135.96 237.751 -1137.84 236.646 -1130.93"/></g><g id="node28" class="node"><title>combo_box_t</title><a xlink:href="../manual/combo_box_t.md" xlink:title="\N"><polygon fill="none" stroke="#000" points="299.394 -55 299.394 -91 394.606 -91 394.606 -55 299.394 -55"/><text x="347" y="-69.5" font-family="Courier New" font-size="12" text-anchor="middle">combo_box_t</text></a></g><g id="edge56" class="edge"><title>combo_box_t-&gt;edit_t</title><path fill="none" stroke="#000" d="M299.373,-65.2748C273.128,-60.9265 240.737,-55.56 215.874,-51.4406"/><polygon fill="none" stroke="#000" points="216.156 -47.94 205.719 -49.758 215.012 -54.846 216.156 -47.94"/></g><g id="node29" class="node"><title>spin_box_t</title><a xlink:href="../manual/spin_box_t.md" xlink:title="\N"><polygon fill="none" stroke="#000" points="302.994 0 302.994 -36 391.006 -36 391.006 0 302.994 0"/><text x="347" y="-14.5" font-family="Courier New" font-size="12" text-anchor="middle">spin_box_t</text></a></g><g id="edge58" class="edge"><title>spin_box_t-&gt;edit_t</title><path fill="none" stroke="#000" d="M302.917,-24.8831C275.981,-29.1865 241.585,-34.6817 215.551,-38.841"/><polygon fill="none" stroke="#000" points="214.985 -35.387 205.663 -40.421 216.09 -42.299 214.985 -35.387"/></g></g></svg>